<?xml version="1.0" encoding="UTF-8"?>
<svg id="Layer_2" data-name="Layer 2" xmlns="http://www.w3.org/2000/svg" viewBox="0 0 638.15 135.08">
  <defs>
    <style>
      .cls-1 {
        fill: #38322c;
      }
    </style>
  </defs>
  <g id="Layer_1-2" data-name="Layer 1">
    <g>
      <path class="cls-1" d="M85.87,79.79v52.89h-13.82v-50.49c0-17.32-10.32-29.3-26.9-29.3-18.24,0-31.33,14.56-31.33,34.46v45.33H0V0h13.82v57.68h.37c7.19-11.06,18.98-18.24,33.54-18.24,22.67,0,38.15,15.66,38.15,40.36Z"/>
      <path class="cls-1" d="M155.16,79.07c-29.12,0-48.84,21.2-48.84,47.73,0,2.43.17,4.82.49,7.15h14.19c-.44-2.31-.67-4.7-.67-7.15,0-18.98,13.82-34.46,34.83-34.46s34.27,15.48,34.27,34.46c0,2.44-.23,4.83-.68,7.15h14.01c.32-2.33.49-4.72.49-7.15,0-26.53-19.53-47.73-48.09-47.73Z"/>
      <path class="cls-1" d="M286.73,41.83v13.82h-16.58c-18.8,0-31.14,11.98-31.14,33.72v43.31h-13.82V41.83h13.45v18.06h.55c5.16-11.98,16.22-18.06,31.51-18.06h16.03Z"/>
      <path class="cls-1" d="M320.08,0v26.17h-13.82V0h13.82ZM320.08,41.83v90.85h-13.82V41.83h13.82Z"/>
      <path class="cls-1" d="M361.55,119.41h59.34v13.27h-78.87v-10.32l57.5-67.26h-55.65v-13.27h75.19v10.14l-57.5,67.45Z"/>
      <path class="cls-1" d="M433.42,87.16c0-26.54,19.72-47.73,48.83-47.73s48.1,21.19,48.1,47.73-19.53,47.91-48.1,47.91-48.83-21.56-48.83-47.91ZM516.53,87.16c0-18.98-13.82-34.46-34.28-34.46s-34.83,15.48-34.83,34.46,13.82,34.65,34.83,34.65,34.28-15.85,34.28-34.65Z"/>
      <path class="cls-1" d="M638.15,79.79v52.89h-13.82v-50.49c0-17.32-10.32-29.3-26.9-29.3-18.24,0-31.33,14.56-31.33,34.46v45.33h-13.82V41.83h13.64v15.85h.37c7-11.06,19.17-18.24,33.72-18.24,22.67,0,38.15,15.66,38.15,40.36Z"/>
    </g>
  </g>
</svg>